<svg xmlns="http://www.w3.org/2000/svg" viewBox="0 0 500 60.39" fill="currentColor">
    <g>
      <path d="M477.37,7.56c-12.48,0-22.63,10.15-22.63,22.63s10.15,22.63,22.63,22.63,22.63-10.15,22.63-22.63-10.15-22.63-22.63-22.63ZM477.37,48.03c-9.84,0-17.84-8-17.84-17.83s8-17.84,17.84-17.84,17.83,8,17.83,17.84-8,17.83-17.83,17.83ZM484.08,32.26c-.66-.66-1.39-1.1-2.24-1.3,1.53-.46,2.65-1.21,3.41-2.19.75-1.01,1.12-2.29,1.12-3.84,0-2.26-.71-3.91-2.17-4.94-1.44-1.05-3.7-1.58-6.81-1.58h-9.28v23.57h6.08v-8.92h1.71c.98,0,1.78.23,2.38.66.59.41,1.19,1.23,1.76,2.4l2.88,5.85h6.47l-3.31-6.68c-.66-1.37-1.33-2.38-1.99-3.04ZM479.46,28.15c-.55.48-1.46.73-2.72.73h-2.56v-6.06h2.56c1.26,0,2.17.23,2.72.69.55.48.85,1.23.85,2.31s-.3,1.87-.85,2.33Z"/>
      <path d="M171.25,21.19c-1.56,2.34-2.34,5.34-2.34,9s.78,6.66,2.34,9c1.81,2.71,4.44,4.07,7.89,4.07,5.47,0,8.43-2.71,8.88-8.14h11.47c-.29,5.59-2.29,9.99-6.01,13.19-3.72,3.21-8.42,4.81-14.09,4.81-6.54,0-11.86-2.22-15.97-6.66-3.99-4.32-5.98-9.74-5.98-16.28s2.02-11.99,6.07-16.37c4.05-4.38,9.34-6.57,15.88-6.57,5.1,0,9.6,1.44,13.5,4.32,4.23,3.21,6.43,7.32,6.6,12.33h-11.47c-.29-2.18-1.22-3.85-2.81-5.03-1.58-1.17-3.61-1.76-6.07-1.76-3.45,0-6.08,1.36-7.89,4.07ZM230.62,34.7c0,5.71-2.57,8.57-7.71,8.57s-7.71-2.86-7.71-8.57V8.18h-11.47v25.84c0,6.45,1.55,11.25,4.66,14.4,3.1,3.14,7.94,4.72,14.52,4.72s11.45-1.58,14.61-4.75c3.04-3.12,4.56-7.91,4.56-14.37V8.18h-11.47v26.51ZM259.67,8.18h-11.47v44.02h32v-9.87h-20.53V8.18ZM281.49,18.05h13.13v34.16h11.47V18.05h13.13v-9.87h-37.74v9.87ZM349.32,34.7c0,5.71-2.57,8.57-7.71,8.57s-7.71-2.86-7.71-8.57V8.18h-11.47v25.84c0,6.45,1.55,11.25,4.66,14.4,3.1,3.14,7.94,4.72,14.52,4.72s11.45-1.58,14.61-4.75c3.04-3.12,4.56-7.91,4.56-14.37V8.18h-11.47v26.51ZM404.69,47.34c.29,2.59.76,4.21,1.42,4.87h-11.35c-.58-.86-1.01-3.21-1.29-7.03-.21-2.84-.64-4.89-1.3-6.17-1.03-1.89-2.73-2.84-5.12-2.84h-8.69v16.03h-11.47V8.18h22.44c4.32,0,7.85.95,10.61,2.84,3.21,2.22,4.81,5.41,4.81,9.56,0,2.47-.58,4.67-1.73,6.6-1.23,2.1-2.96,3.58-5.18,4.44v.12c3.78.9,5.92,4.42,6.41,10.54.12,1.69.27,3.37.43,5.06ZM393.28,22.12c0-3.16-1.93-4.75-5.8-4.75h-9.13v9.93h9.62c3.54,0,5.3-1.73,5.3-5.18ZM421.34,42.34v-8.38h21.58v-8.88h-21.58v-7.71h23.62v-9.19h-35.08v44.02h35.7v-9.87h-24.23Z"/>
      <path d="M37.62,38.09c0,3.29-2.06,4.93-6.17,4.93h-9.19v-10.11h9.19c4.11,0,6.17,1.73,6.17,5.18ZM73.81,17.12c-3.45,0-6.08,1.36-7.89,4.07-1.56,2.34-2.34,5.34-2.34,9s.78,6.66,2.34,9c1.81,2.71,4.44,4.07,7.89,4.07s6.08-1.36,7.89-4.07c1.56-2.34,2.34-5.34,2.34-9s-.78-6.66-2.34-9c-1.81-2.71-4.44-4.07-7.89-4.07ZM34.22,24.58c1.07-.74,1.6-1.83,1.6-3.27,0-2.84-1.56-4.25-4.69-4.25h-8.88v8.45h8.88c1.19,0,2.22-.31,3.08-.93ZM152.41,10.91v49.49H0V0h141.51l10.91,10.91ZM49.08,38.52c0-2.51-.68-4.71-2.04-6.6s-3.21-3.16-5.55-3.82c3.86-1.93,5.8-4.89,5.8-8.88,0-7.36-5.3-11.04-15.91-11.04H10.79v44.02h21.15c11.43,0,17.14-4.56,17.14-13.69ZM95.51,30.2c0-6.62-1.89-12.04-5.67-16.28-3.95-4.44-9.29-6.66-16.03-6.66s-12.09,2.22-16.03,6.66c-3.78,4.23-5.67,9.66-5.67,16.28s1.89,12.04,5.67,16.28c3.95,4.44,9.29,6.66,16.03,6.66s12.09-2.22,16.03-6.66c3.78-4.23,5.67-9.66,5.67-16.28ZM140.15,52.21l-15.54-23.12,14.24-20.9h-13.07l-7.83,13.69-7.4-13.69h-13.5l14.37,20.9-15.66,23.12h13.19l9-14.67,8.26,14.67h13.93Z"/>
    </g>
</svg>