<svg xmlns="http://www.w3.org/2000/svg" viewBox="0 0 342 114.73" fill="currentColor">
    <g>
      <path d="M13.8,82.81c-1.56,2.34-2.34,5.34-2.34,9s.78,6.65,2.34,9c1.81,2.71,4.44,4.07,7.89,4.07,5.46,0,8.42-2.71,8.87-8.14h11.46c-.29,5.59-2.29,9.98-6.01,13.19-3.72,3.2-8.41,4.81-14.08,4.81-6.53,0-11.85-2.22-15.96-6.65C1.99,103.76,0,98.34,0,91.81s2.02-11.99,6.07-16.36c4.05-4.37,9.34-6.56,15.87-6.56,5.09,0,9.59,1.44,13.5,4.31,4.23,3.2,6.43,7.31,6.59,12.33h-11.46c-.29-2.18-1.22-3.85-2.8-5.02-1.58-1.17-3.61-1.76-6.07-1.76-3.45,0-6.08,1.35-7.89,4.07ZM73.15,96.31c0,5.71-2.57,8.57-7.7,8.57s-7.7-2.86-7.7-8.57v-26.5h-11.46v25.82c0,6.45,1.55,11.25,4.65,14.39,3.1,3.14,7.94,4.71,14.51,4.71s11.44-1.58,14.61-4.75c3.04-3.12,4.56-7.91,4.56-14.36v-25.82h-11.46v26.5ZM102.18,69.81h-11.46v44h31.99v-9.86h-20.52v-34.14ZM123.99,79.67h13.13v34.14h11.46v-34.14h13.13v-9.86h-37.72v9.86ZM191.78,96.31c0,5.71-2.57,8.57-7.7,8.57s-7.7-2.86-7.7-8.57v-26.5h-11.46v25.82c0,6.45,1.55,11.25,4.65,14.39,3.1,3.14,7.94,4.71,14.51,4.71s11.44-1.58,14.61-4.75c3.04-3.12,4.56-7.91,4.56-14.36v-25.82h-11.46v26.5ZM247.12,108.94c.29,2.59.76,4.21,1.42,4.87h-11.34c-.58-.86-1.01-3.2-1.29-7.03-.21-2.84-.64-4.89-1.29-6.16-1.03-1.89-2.73-2.84-5.12-2.84h-8.69v16.02h-11.46v-44h22.43c4.32,0,7.85.95,10.6,2.84,3.2,2.22,4.81,5.4,4.81,9.55,0,2.46-.58,4.66-1.73,6.59-1.23,2.09-2.96,3.57-5.18,4.44v.12c3.78.9,5.92,4.42,6.41,10.54.12,1.69.27,3.37.43,5.05ZM235.72,83.73c0-3.16-1.93-4.75-5.79-4.75h-9.12v9.92h9.61c3.53,0,5.3-1.73,5.3-5.18ZM263.76,103.95v-8.38h21.57v-8.87h-21.57v-7.7h23.6v-9.18h-35.07v44h35.68v-9.86h-24.22Z"/>
      <path d="M319.38,69.19c-12.47,0-22.62,10.15-22.62,22.62s10.15,22.62,22.62,22.62,22.62-10.15,22.62-22.62-10.15-22.62-22.62-22.62ZM319.38,109.63c-9.83,0-17.83-8-17.83-17.82s8-17.83,17.83-17.83,17.82,8,17.82,17.83-8,17.82-17.82,17.82ZM326.09,93.88c-.66-.66-1.39-1.1-2.24-1.3,1.53-.46,2.65-1.21,3.4-2.19.75-1.01,1.12-2.28,1.12-3.84,0-2.26-.71-3.91-2.17-4.94-1.44-1.05-3.7-1.58-6.81-1.58h-9.28v23.56h6.08v-8.91h1.71c.98,0,1.78.23,2.38.66.59.41,1.19,1.23,1.76,2.4l2.88,5.85h6.47l-3.31-6.67c-.66-1.37-1.33-2.38-1.99-3.04ZM321.47,89.76c-.55.48-1.46.73-2.72.73h-2.56v-6.06h2.56c1.26,0,2.17.23,2.72.69.55.48.85,1.23.85,2.31s-.3,1.87-.85,2.33Z"/>
      <path d="M37.6,38.07c0,3.29-2.06,4.93-6.16,4.93h-9.18v-10.11h9.18c4.11,0,6.16,1.73,6.16,5.18ZM34.21,24.57c1.07-.74,1.6-1.83,1.6-3.27,0-2.84-1.56-4.25-4.68-4.25h-8.87v8.44h8.87c1.19,0,2.22-.31,3.08-.93ZM73.77,17.12c-3.45,0-6.08,1.35-7.89,4.07-1.56,2.34-2.34,5.34-2.34,9s.78,6.65,2.34,9c1.81,2.71,4.44,4.07,7.89,4.07s6.08-1.36,7.89-4.07c1.56-2.34,2.34-5.34,2.34-9s-.78-6.66-2.34-9c-1.81-2.71-4.44-4.07-7.89-4.07ZM152.33,10.9v49.46H0V0h141.43l10.9,10.9ZM49.06,38.5c0-2.5-.68-4.7-2.03-6.59s-3.2-3.16-5.55-3.82c3.86-1.93,5.79-4.89,5.79-8.87,0-7.35-5.3-11.03-15.9-11.03H10.79v44h21.14c11.42,0,17.13-4.56,17.13-13.68ZM95.46,30.18c0-6.61-1.89-12.04-5.67-16.27-3.94-4.44-9.29-6.66-16.02-6.66s-12.08,2.22-16.02,6.66c-3.78,4.23-5.67,9.65-5.67,16.27s1.89,12.04,5.67,16.27c3.94,4.44,9.29,6.65,16.02,6.65s12.08-2.22,16.02-6.65c3.78-4.23,5.67-9.65,5.67-16.27ZM140.08,52.18l-15.53-23.11,14.24-20.89h-13.06l-7.83,13.68-7.39-13.68h-13.5l14.36,20.89-15.65,23.11h13.19l9-14.67,8.26,14.67h13.93Z"/>
  </g>
</svg>